<?xml version="1.0" standalone="no"?>
<!DOCTYPE svg PUBLIC "-//W3C//DTD SVG 20010904//EN"
 "http://www.w3.org/TR/2001/REC-SVG-20010904/DTD/svg10.dtd">
<svg version="1.0" xmlns="http://www.w3.org/2000/svg"
 width="255.000000pt" height="238.000000pt" viewBox="0 0 255.000000 238.000000"
 preserveAspectRatio="xMidYMid meet">
<metadata>
Created by potrace 1.10, written by Peter Selinger 2001-2011
</metadata>
<g transform="translate(0.000000,238.000000) scale(0.100000,-0.100000)"
fill="#000000" stroke="none">
<path d="M1195 2231 c-66 -30 -105 -87 -120 -174 -6 -37 -8 -39 -143 -106 -75
-38 -147 -71 -158 -75 -15 -5 -37 3 -73 25 -46 29 -60 32 -124 32 -84 0 -136
-22 -184 -77 -58 -66 -68 -159 -24 -243 21 -43 103 -123 124 -123 36 0 47 -26
72 -179 l26 -154 -40 -41 c-48 -49 -71 -100 -71 -158 0 -43 29 -120 49 -132
22 -14 9 -56 -84 -274 -52 -123 -97 -233 -101 -247 -15 -61 22 -85 129 -85 81
0 116 14 134 50 6 14 30 119 53 235 24 116 48 218 54 228 6 10 35 27 63 37
l53 18 121 -93 122 -93 4 -99 c2 -54 3 -134 3 -177 -1 -68 2 -82 21 -103 22
-22 27 -23 194 -23 213 0 210 -2 210 129 1 47 6 105 13 129 9 32 10 54 2 84
-6 22 -9 46 -6 54 3 8 66 54 141 103 191 127 177 136 250 -162 31 -128 61
-245 67 -260 17 -44 45 -57 121 -57 59 0 71 3 92 25 14 13 25 28 25 34 0 5
-34 97 -76 203 -42 106 -86 221 -99 254 l-23 62 24 35 c58 85 55 182 -8 261
l-31 39 12 159 c7 88 14 165 17 172 3 7 24 17 48 24 59 15 125 68 153 121 27
51 31 142 10 194 -60 141 -252 193 -372 101 -25 -19 -51 -34 -59 -34 -8 0 -82
34 -164 75 -149 73 -151 74 -158 112 -14 78 -75 159 -137 182 -42 16 -107 13
-152 -8z m153 -35 c59 -31 93 -86 94 -155 1 -43 4 -49 32 -61 17 -7 104 -49
194 -93 90 -43 165 -77 166 -75 2 1 8 13 15 25 6 12 32 34 56 49 40 23 54 26
113 22 89 -5 141 -39 177 -114 31 -66 31 -92 0 -158 -32 -67 -86 -105 -159
-113 l-51 -5 -2 -52 c-5 -105 -26 -324 -32 -334 -3 -6 -19 -8 -35 -5 -28 6
-28 6 -22 64 4 32 13 89 21 126 7 37 17 98 20 135 5 50 11 68 24 71 9 3 5 5
-10 6 -26 1 -71 30 -96 61 -9 10 -15 12 -20 4 -5 -6 -55 -36 -113 -66 -58 -30
-134 -71 -170 -91 -59 -32 -67 -34 -84 -21 -25 18 -20 23 85 83 46 26 124 71
172 99 49 29 90 52 92 52 1 0 5 -10 8 -22 4 -12 8 -20 11 -17 3 3 -2 26 -12
51 -13 38 -14 55 -6 87 6 22 8 38 4 36 -4 -3 -67 22 -140 56 -226 102 -240
110 -241 127 0 13 -2 12 -9 -4 -11 -27 -52 -60 -93 -73 -32 -11 -32 -11 -32
-78 0 -38 -1 -125 -3 -195 -2 -118 -3 -128 -21 -128 -10 0 -22 7 -25 16 -3 9
-6 99 -6 200 0 163 -2 184 -16 184 -26 0 -82 39 -89 61 -6 19 -7 19 -35 -1
-15 -11 -31 -20 -34 -20 -3 0 -56 -24 -118 -53 -62 -30 -133 -62 -158 -72
l-45 -18 0 -61 c0 -34 -4 -68 -8 -76 -5 -11 4 -21 31 -36 48 -27 276 -161 312
-183 12 -8 13 -12 2 -22 -13 -14 -10 -16 -250 110 -119 63 -136 69 -149 55
-42 -41 -151 -66 -194 -44 -112 58 -154 219 -79 304 30 34 108 66 160 66 43 0
113 -34 143 -70 15 -17 27 -27 27 -21 0 10 269 145 341 171 35 12 36 15 27 41
-16 47 15 124 65 160 46 33 117 40 165 15z m-185 -318 c18 -12 35 -27 39 -33
4 -5 8 -78 8 -162 l0 -151 -52 -31 -53 -30 -65 36 c-36 20 -103 60 -150 88
l-85 51 -3 50 c-1 27 1 54 5 61 10 14 282 141 306 142 11 1 33 -9 50 -21z
m438 -44 c79 -37 150 -71 157 -76 18 -15 15 -72 -5 -90 -33 -29 -294 -178
-311 -178 -9 0 -35 11 -57 23 l-40 23 2 140 c2 76 5 148 8 159 4 19 67 64 91
65 6 0 76 -30 155 -66z m272 -317 l29 -22 -21 -140 c-29 -192 -25 -181 -79
-208 l-47 -24 -103 51 c-111 55 -107 50 -116 148 l-4 57 146 81 c81 44 152 80
157 80 6 0 23 -10 38 -23z m-1025 -47 c194 -99 185 -91 177 -158 -8 -69 -17
-78 -137 -138 -85 -43 -87 -43 -123 -28 -44 18 -48 27 -80 183 -31 154 -32
175 -2 189 35 17 42 15 165 -48z m-235 23 c4 -16 17 -84 31 -153 13 -69 26
-132 29 -140 3 -8 8 -27 11 -42 6 -25 3 -28 -19 -28 -19 0 -26 6 -30 28 -4 15
-10 45 -16 67 -12 51 -39 237 -39 270 0 34 26 32 33 -2z m770 -22 c37 -14 94
-78 108 -120 11 -33 8 -118 -6 -156 -5 -16 -5 -17 4 -5 9 13 29 6 136 -48 112
-57 125 -66 119 -85 -4 -14 3 -9 26 16 38 44 83 59 140 46 59 -13 86 -34 111
-86 17 -35 20 -55 16 -94 -7 -56 -39 -109 -66 -109 -15 0 -7 -28 55 -182 95
-239 138 -346 151 -375 7 -18 -151 -18 -164 0 -6 6 -15 41 -22 77 -7 36 -20
94 -30 130 -27 95 -81 324 -81 343 0 13 9 17 35 17 19 0 35 5 35 10 0 6 -20
10 -45 10 -43 0 -45 -1 -39 -25 3 -14 3 -25 0 -25 -21 0 -80 33 -101 56 -31
34 -39 62 -32 120 3 32 1 44 -8 44 -7 0 -42 18 -76 40 -35 21 -88 53 -117 69
l-53 30 -44 -45 c-29 -29 -53 -44 -70 -44 -14 0 -25 -2 -25 -5 0 -3 7 -38 15
-78 8 -40 23 -135 34 -212 18 -135 20 -141 54 -178 19 -22 38 -54 41 -72 8
-42 -3 -111 -19 -125 -10 -8 -15 11 -25 90 -7 55 -16 100 -21 100 -12 0 -11
-26 0 -64 6 -17 20 -85 32 -151 12 -66 24 -126 26 -132 4 -10 -36 -13 -182
-13 l-187 0 7 28 c18 70 21 131 8 145 -7 7 -16 36 -20 65 -4 40 -1 59 15 91
l21 40 -29 18 c-16 10 -85 61 -153 113 -114 87 -124 97 -114 117 l10 22 41
-32 c23 -17 89 -72 149 -120 100 -83 107 -91 107 -125 0 -59 12 -28 15 40 3
61 29 323 40 401 5 32 3 37 -15 37 -23 0 -87 53 -95 81 -5 14 -10 17 -18 11
-7 -6 -61 -40 -121 -77 l-110 -66 -18 23 c-10 13 -18 26 -18 29 0 6 35 26 201
112 l56 30 -5 46 c-8 84 54 178 134 206 42 14 144 12 187 -4z m-618 -369 c17
-10 44 -38 60 -62 24 -35 30 -54 30 -96 0 -64 -23 -100 -85 -131 -61 -31 -84
-30 -77 3 3 20 -1 27 -20 35 -39 15 -64 11 -70 -11 -13 -50 -82 47 -83 117 0
53 29 112 69 139 45 30 130 33 176 6z m350 -24 c53 -37 53 -36 30 -228 -8 -69
-15 -126 -15 -127 0 -13 -33 9 -121 82 l-104 85 -5 56 c-3 30 -3 59 0 63 6 10
152 100 162 101 4 0 28 -14 53 -32z m471 -19 c92 -55 104 -70 104 -123 0 -33
-7 -41 -86 -103 -121 -95 -153 -117 -160 -110 -6 6 -53 267 -54 298 0 16 84
89 103 89 5 0 47 -23 93 -51z m173 -203 l22 -23 -160 -108 c-99 -66 -166 -105
-176 -101 -32 12 -25 19 194 185 52 39 95 71 96 71 1 0 12 -11 24 -24z m-1090
-25 c16 -10 14 -22 -24 -206 -14 -71 -36 -182 -48 -245 l-22 -115 -108 -3
c-105 -3 -123 3 -92 28 8 7 15 17 15 22 0 6 12 38 27 72 14 33 42 97 61 141
19 44 42 98 52 120 9 22 32 75 51 118 33 79 50 92 88 68z"/>
<path d="M1236 1018 c-2 -29 -12 -122 -20 -207 -9 -85 -14 -156 -12 -158 1 -2
17 2 35 8 18 6 55 9 82 7 43 -4 49 -3 44 11 -6 15 -44 335 -45 374 0 13 -9 17
-39 17 l-40 0 -5 -52z m64 -41 c0 -46 3 -132 7 -190 l6 -107 -31 0 -32 0 0
144 c0 186 7 236 31 236 17 0 19 -9 19 -83z"/>
<path d="M1190 593 c0 -26 -3 -72 -6 -100 l-7 -53 107 0 106 0 0 33 c0 70 -13
167 -23 167 -9 0 -7 -27 10 -142 l5 -37 -94 -3 c-51 -2 -94 -3 -95 -3 0 0 2
40 6 88 4 49 3 91 -1 93 -4 3 -8 -16 -8 -43z"/>
</g>
</svg>
